<?xml version="1.0" encoding="UTF-8"?>
<svg width="40px" height="64px" viewBox="0 0 40 64" version="1.1" xmlns="http://www.w3.org/2000/svg" xmlns:xlink="http://www.w3.org/1999/xlink">
    <!-- Generator: Sketch 53.2 (72643) - https://sketchapp.com -->
    <title>ae-logo</title>
    <desc>Created with Sketch.</desc>
    <g id="Page-1" stroke="none" stroke-width="1" fill="none" fill-rule="evenodd">
        <g id="Desktop-Copy" transform="translate(-80.000000, -80.000000)" fill-rule="nonzero">
            <g id="ae-logo" transform="translate(80.000000, 80.000000)">
                <path d="M6,28.5 L34,28.5 L34,20 C34,12.2680135 27.7319865,6 20,6 C12.2680135,6 6,12.2680135 6,20 L6,28.5 Z M6,34.5 L6,44 C6,51.7319865 12.2680135,58 20,58 C27.7319865,58 34,51.7319865 34,44 L34,34.5 L6,34.5 Z M20,0 C31.045695,-2.02906125e-15 40,8.954305 40,20 L40,44 C40,55.045695 31.045695,64 20,64 C8.954305,64 1.3527075e-15,55.045695 0,44 L0,20 C-1.3527075e-15,8.954305 8.954305,2.02906125e-15 20,0 Z" id="Combined-Shape" fill="#545454"></path>
                <polygon id="Line-Copy-2" fill-opacity="0.7" fill="#FFFFFF" points="1.77635684e-15 28.5 1.77635684e-15 22.5 6 22.5 6 28.5"></polygon>
                <polygon id="Line-Copy-3" fill-opacity="0.7" fill="#FFFFFF" points="34 40.5 34 34.5 40 34.5 40 40.5"></polygon>
            </g>
        </g>
    </g>
</svg>